<svg xmlns="http://www.w3.org/2000/svg" fill="#6d6e70" viewBox="0 0 16 16"><title>copy to clipboard</title><path d="M14.2,3.62H11.93V2.11a.53.53,0,0,0-.53-.53h-2V.53A.53.53,0,0,0,8.9,0H4.12a.53.53,0,0,0-.53.53V1.58h-2a.53.53,0,0,0-.53.53V14.49a.53.53,0,0,0,.53.53h3.5v.29a.69.69,0,0,0,.69.69H14.2a.69.69,0,0,0,.69-.69v-11A.69.69,0,0,0,14.2,3.62ZM4.65,1.06H8.37v.52H4.65ZM2.17,14V2.65h8.7v1h-5a.69.69,0,0,0-.69.69V14ZM13,13.42H7.06a.53.53,0,1,1,0-1.06H13a.53.53,0,0,1,0,1.06Zm0-3.08H7.06a.53.53,0,1,1,0-1.06H13a.53.53,0,0,1,0,1.06Zm0-2.46H7.06a.53.53,0,0,1,0-1.06H13a.53.53,0,0,1,0,1.06Z"/></svg>
