<svg width="20px" height="20px" fill="#8CC1C1" viewBox="0 0 24 24" version="1.1" xmlns="http://www.w3.org/2000/svg" xmlns:xlink="http://www.w3.org/1999/xlink">
    <title>success-full</title>
	<path d="M19.061,9.061 L11,17.122 L5.94,12.061 C5.354,11.476 5.354,10.525 5.94,9.94 C6.526,9.354 7.475,9.354 8.061,9.94 L11,12.879 L16.94,6.94 C17.526,6.354 18.475,6.354 19.061,6.94 C19.647,7.525 19.647,8.476 19.061,9.061 M12,0 C5.384,0 0,5.384 0,12 C0,18.617 5.384,24 12,24 C18.617,24 24,18.617 24,12 C24,5.384 18.617,0 12,0" id="path-1"></path>
</svg>
