<svg xmlns="http://www.w3.org/2000/svg" fill="#8cc1c1" viewBox="0 0 24 24"><title>tooltip-full</title><path d="M12,2A10,10,0,1,0,22,12,10,10,0,0,0,12,2Zm2,14.44-1.1.42a3.08,3.08,0,0,1-1,.14,1.86,1.86,0,0,1-1.3-.41,1.32,1.32,0,0,1-.47-1,4.21,4.21,0,0,1,0-.5,5.26,5.26,0,0,1,.11-.58l.58-2c0-.2.09-.38.13-.56a2.79,2.79,0,0,0,.05-.47.74.74,0,0,0-.16-.55.93.93,0,0,0-.62-.15,1.51,1.51,0,0,0-.46.07l-.4.13.15-.63c.38-.15.74-.28,1.09-.39a3.21,3.21,0,0,1,1-.17,1.9,1.9,0,0,1,1.28.4,1.35,1.35,0,0,1,.45,1.05c0,.09,0,.24,0,.47a3.5,3.5,0,0,1-.11.61l-.58,2c-.05.17-.09.35-.13.56a3.89,3.89,0,0,0,0,.48.68.68,0,0,0,.18.55,1,1,0,0,0,.63.15,1.71,1.71,0,0,0,.47-.08,2.47,2.47,0,0,0,.39-.13Zm-.1-8.25a1.37,1.37,0,0,1-1,.37,1.38,1.38,0,0,1-1-.37,1.22,1.22,0,0,1,0-1.81,1.39,1.39,0,0,1,1-.38,1.38,1.38,0,0,1,1,.38,1.22,1.22,0,0,1,0,1.81Z"/></svg>
